<mxfile host="app.diagrams.net" modified="2024-01-17T21:18:19.019Z" agent="Mozilla/5.0 (Windows NT 10.0; Win64; x64; rv:121.0) Gecko/20100101 Firefox/121.0" etag="fpNOtp9FloEEI6j1F7lL" version="22.1.21" type="device">
  <diagram name="Strona-1" id="wuGsezLXJqCB3DgRIWSi">
    <mxGraphModel dx="1050" dy="558" grid="1" gridSize="10" guides="1" tooltips="1" connect="1" arrows="1" fold="1" page="1" pageScale="1" pageWidth="827" pageHeight="1169" math="0" shadow="0">
      <root>
        <mxCell id="0" />
        <mxCell id="1" parent="0" />
        <mxCell id="lFHJ-EXwPbxyO6EVrD-E-22" style="edgeStyle=orthogonalEdgeStyle;rounded=0;orthogonalLoop=1;jettySize=auto;html=1;entryX=0;entryY=0.5;entryDx=0;entryDy=0;" parent="1" source="lFHJ-EXwPbxyO6EVrD-E-3" target="lFHJ-EXwPbxyO6EVrD-E-4" edge="1">
          <mxGeometry relative="1" as="geometry" />
        </mxCell>
        <mxCell id="lFHJ-EXwPbxyO6EVrD-E-37" value="Potrzebne do kaskadowego usuwania" style="edgeLabel;html=1;align=center;verticalAlign=middle;resizable=0;points=[];" parent="lFHJ-EXwPbxyO6EVrD-E-22" vertex="1" connectable="0">
          <mxGeometry x="0.0022" y="4" relative="1" as="geometry">
            <mxPoint as="offset" />
          </mxGeometry>
        </mxCell>
        <mxCell id="lFHJ-EXwPbxyO6EVrD-E-25" style="edgeStyle=orthogonalEdgeStyle;rounded=0;orthogonalLoop=1;jettySize=auto;html=1;entryX=0.5;entryY=0;entryDx=0;entryDy=0;" parent="1" source="lFHJ-EXwPbxyO6EVrD-E-3" target="lFHJ-EXwPbxyO6EVrD-E-9" edge="1">
          <mxGeometry relative="1" as="geometry" />
        </mxCell>
        <mxCell id="lFHJ-EXwPbxyO6EVrD-E-3" value="Medicine Service" style="rounded=0;whiteSpace=wrap;html=1;" parent="1" vertex="1">
          <mxGeometry x="160" y="480" width="120" height="60" as="geometry" />
        </mxCell>
        <mxCell id="lFHJ-EXwPbxyO6EVrD-E-23" style="edgeStyle=orthogonalEdgeStyle;rounded=0;orthogonalLoop=1;jettySize=auto;html=1;entryX=0;entryY=0.5;entryDx=0;entryDy=0;" parent="1" source="lFHJ-EXwPbxyO6EVrD-E-4" target="lFHJ-EXwPbxyO6EVrD-E-5" edge="1">
          <mxGeometry relative="1" as="geometry" />
        </mxCell>
        <mxCell id="lFHJ-EXwPbxyO6EVrD-E-24" style="edgeStyle=orthogonalEdgeStyle;rounded=0;orthogonalLoop=1;jettySize=auto;html=1;entryX=0.5;entryY=0;entryDx=0;entryDy=0;" parent="1" source="lFHJ-EXwPbxyO6EVrD-E-4" target="lFHJ-EXwPbxyO6EVrD-E-10" edge="1">
          <mxGeometry relative="1" as="geometry" />
        </mxCell>
        <mxCell id="lFHJ-EXwPbxyO6EVrD-E-4" value="Notification Service" style="rounded=0;whiteSpace=wrap;html=1;" parent="1" vertex="1">
          <mxGeometry x="600" y="480" width="120" height="60" as="geometry" />
        </mxCell>
        <mxCell id="lFHJ-EXwPbxyO6EVrD-E-5" value="Scheduling Notification Service" style="rounded=0;whiteSpace=wrap;html=1;" parent="1" vertex="1">
          <mxGeometry x="800" y="480" width="120" height="60" as="geometry" />
        </mxCell>
        <mxCell id="L5H5WeCMFn3MbZZRz-1p-8" style="edgeStyle=orthogonalEdgeStyle;rounded=0;orthogonalLoop=1;jettySize=auto;html=1;entryX=0.75;entryY=0;entryDx=0;entryDy=0;" parent="1" source="lFHJ-EXwPbxyO6EVrD-E-6" target="lFHJ-EXwPbxyO6EVrD-E-4" edge="1">
          <mxGeometry relative="1" as="geometry">
            <Array as="points">
              <mxPoint x="90" y="250" />
              <mxPoint x="690" y="250" />
            </Array>
          </mxGeometry>
        </mxCell>
        <mxCell id="L5H5WeCMFn3MbZZRz-1p-13" style="edgeStyle=orthogonalEdgeStyle;rounded=0;orthogonalLoop=1;jettySize=auto;html=1;entryX=0;entryY=0.5;entryDx=0;entryDy=0;" parent="1" target="lFHJ-EXwPbxyO6EVrD-E-3" edge="1">
          <mxGeometry relative="1" as="geometry">
            <Array as="points">
              <mxPoint x="90" y="510" />
            </Array>
            <mxPoint x="90" y="380" as="sourcePoint" />
            <mxPoint x="180" y="510" as="targetPoint" />
          </mxGeometry>
        </mxCell>
        <mxCell id="lFHJ-EXwPbxyO6EVrD-E-6" value="Add Medicine Controller" style="rounded=0;whiteSpace=wrap;html=1;" parent="1" vertex="1">
          <mxGeometry x="30" y="320" width="120" height="60" as="geometry" />
        </mxCell>
        <mxCell id="L5H5WeCMFn3MbZZRz-1p-7" style="edgeStyle=orthogonalEdgeStyle;rounded=0;orthogonalLoop=1;jettySize=auto;html=1;entryX=0.25;entryY=0;entryDx=0;entryDy=0;" parent="1" source="lFHJ-EXwPbxyO6EVrD-E-8" target="lFHJ-EXwPbxyO6EVrD-E-4" edge="1">
          <mxGeometry relative="1" as="geometry" />
        </mxCell>
        <mxCell id="L5H5WeCMFn3MbZZRz-1p-14" style="edgeStyle=orthogonalEdgeStyle;rounded=0;orthogonalLoop=1;jettySize=auto;html=1;entryX=0.5;entryY=0;entryDx=0;entryDy=0;" parent="1" source="lFHJ-EXwPbxyO6EVrD-E-8" target="lFHJ-EXwPbxyO6EVrD-E-3" edge="1">
          <mxGeometry relative="1" as="geometry">
            <Array as="points">
              <mxPoint x="220" y="350" />
            </Array>
          </mxGeometry>
        </mxCell>
        <mxCell id="lFHJ-EXwPbxyO6EVrD-E-8" value="Medicine Screen Controller" style="rounded=0;whiteSpace=wrap;html=1;" parent="1" vertex="1">
          <mxGeometry x="280" y="320" width="120" height="60" as="geometry" />
        </mxCell>
        <mxCell id="lFHJ-EXwPbxyO6EVrD-E-26" style="edgeStyle=orthogonalEdgeStyle;rounded=0;orthogonalLoop=1;jettySize=auto;html=1;exitX=0.5;exitY=1;exitDx=0;exitDy=0;" parent="1" source="lFHJ-EXwPbxyO6EVrD-E-9" target="lFHJ-EXwPbxyO6EVrD-E-11" edge="1">
          <mxGeometry relative="1" as="geometry" />
        </mxCell>
        <mxCell id="lFHJ-EXwPbxyO6EVrD-E-9" value="Medicine Repository" style="rounded=0;whiteSpace=wrap;html=1;" parent="1" vertex="1">
          <mxGeometry x="160" y="640" width="120" height="60" as="geometry" />
        </mxCell>
        <mxCell id="lFHJ-EXwPbxyO6EVrD-E-28" style="edgeStyle=orthogonalEdgeStyle;rounded=0;orthogonalLoop=1;jettySize=auto;html=1;entryX=0.5;entryY=0;entryDx=0;entryDy=0;exitX=0.5;exitY=1;exitDx=0;exitDy=0;" parent="1" source="lFHJ-EXwPbxyO6EVrD-E-10" target="lFHJ-EXwPbxyO6EVrD-E-12" edge="1">
          <mxGeometry relative="1" as="geometry" />
        </mxCell>
        <mxCell id="lFHJ-EXwPbxyO6EVrD-E-10" value="Notification Repository" style="rounded=0;whiteSpace=wrap;html=1;" parent="1" vertex="1">
          <mxGeometry x="600" y="640" width="120" height="60" as="geometry" />
        </mxCell>
        <mxCell id="lFHJ-EXwPbxyO6EVrD-E-11" value="Medicine To DTO Converter" style="rounded=0;whiteSpace=wrap;html=1;" parent="1" vertex="1">
          <mxGeometry x="160" y="740" width="120" height="60" as="geometry" />
        </mxCell>
        <mxCell id="lFHJ-EXwPbxyO6EVrD-E-12" value="Notification To DTO Converter" style="rounded=0;whiteSpace=wrap;html=1;" parent="1" vertex="1">
          <mxGeometry x="600" y="740" width="120" height="60" as="geometry" />
        </mxCell>
        <mxCell id="lFHJ-EXwPbxyO6EVrD-E-32" style="edgeStyle=orthogonalEdgeStyle;rounded=0;orthogonalLoop=1;jettySize=auto;html=1;" parent="1" source="lFHJ-EXwPbxyO6EVrD-E-30" target="lFHJ-EXwPbxyO6EVrD-E-31" edge="1">
          <mxGeometry relative="1" as="geometry" />
        </mxCell>
        <mxCell id="lFHJ-EXwPbxyO6EVrD-E-30" value="Connector" style="rounded=0;whiteSpace=wrap;html=1;" parent="1" vertex="1">
          <mxGeometry x="380" y="950" width="120" height="60" as="geometry" />
        </mxCell>
        <mxCell id="lFHJ-EXwPbxyO6EVrD-E-31" value="Shared Preferences" style="rounded=0;whiteSpace=wrap;html=1;" parent="1" vertex="1">
          <mxGeometry x="380" y="1080" width="120" height="60" as="geometry" />
        </mxCell>
        <mxCell id="L5H5WeCMFn3MbZZRz-1p-2" style="edgeStyle=orthogonalEdgeStyle;rounded=0;orthogonalLoop=1;jettySize=auto;html=1;" parent="1" source="L5H5WeCMFn3MbZZRz-1p-1" target="lFHJ-EXwPbxyO6EVrD-E-30" edge="1">
          <mxGeometry relative="1" as="geometry" />
        </mxCell>
        <mxCell id="L5H5WeCMFn3MbZZRz-1p-6" style="edgeStyle=orthogonalEdgeStyle;rounded=0;orthogonalLoop=1;jettySize=auto;html=1;entryX=0.5;entryY=0;entryDx=0;entryDy=0;" parent="1" source="L5H5WeCMFn3MbZZRz-1p-1" target="L5H5WeCMFn3MbZZRz-1p-5" edge="1">
          <mxGeometry relative="1" as="geometry" />
        </mxCell>
        <mxCell id="L5H5WeCMFn3MbZZRz-1p-1" value="Shared Preferences Crud Repository" style="rounded=0;whiteSpace=wrap;html=1;" parent="1" vertex="1">
          <mxGeometry x="380" y="850" width="120" height="60" as="geometry" />
        </mxCell>
        <mxCell id="L5H5WeCMFn3MbZZRz-1p-3" value="" style="endArrow=block;endSize=16;endFill=0;html=1;rounded=0;exitX=1;exitY=0.25;exitDx=0;exitDy=0;entryX=0.25;entryY=0;entryDx=0;entryDy=0;" parent="1" source="lFHJ-EXwPbxyO6EVrD-E-9" target="L5H5WeCMFn3MbZZRz-1p-1" edge="1">
          <mxGeometry x="0.0019" y="40" width="160" relative="1" as="geometry">
            <mxPoint x="360" y="810" as="sourcePoint" />
            <mxPoint x="430" y="820" as="targetPoint" />
            <Array as="points">
              <mxPoint x="410" y="655" />
            </Array>
            <mxPoint as="offset" />
          </mxGeometry>
        </mxCell>
        <mxCell id="L5H5WeCMFn3MbZZRz-1p-4" value="" style="endArrow=block;endSize=16;endFill=0;html=1;rounded=0;exitX=0;exitY=0.25;exitDx=0;exitDy=0;entryX=0.75;entryY=0;entryDx=0;entryDy=0;" parent="1" source="lFHJ-EXwPbxyO6EVrD-E-10" target="L5H5WeCMFn3MbZZRz-1p-1" edge="1">
          <mxGeometry width="160" relative="1" as="geometry">
            <mxPoint x="360" y="790" as="sourcePoint" />
            <mxPoint x="520" y="790" as="targetPoint" />
            <Array as="points">
              <mxPoint x="470" y="655" />
            </Array>
          </mxGeometry>
        </mxCell>
        <mxCell id="L5H5WeCMFn3MbZZRz-1p-5" value="Custom Converter &amp;lt;DTO, Json&amp;gt;" style="html=1;whiteSpace=wrap;" parent="1" vertex="1">
          <mxGeometry x="210" y="955" width="110" height="50" as="geometry" />
        </mxCell>
      </root>
    </mxGraphModel>
  </diagram>
</mxfile>
